# xmcd
#
# Track frame offsets: 
#        182
#        11185
#        25982
#        36445
#        49287
#        62180
#        78002
#        89357
#        100050
#        115370
#        127180
#        138190
#
# Disc length: 2046 seconds
#
# Revision: 2
# Processed by: cddbd v1.5.2PL0 Copyright (c) Steve Scherf et al.
# Submitted via: ExactAudioCopyFreeDBPlugin 1.0
#
DISCID=a407fc0c
DTITLE=Don Covay - Mercy!
DYEAR=1964
DGENRE=Soul
TTITLE0=Mercy, Mercy
TTITLE1=I'll Be Satisfied
TTITLE2=Come on In
TTITLE3=Can't Stay Away
TTITLE4=Can't Fight it Baby
TTITLE5=You're Good for Me
TTITLE6=Take the Hurt Off Me
TTITLE7=Daddy Loves Baby
TTITLE8=Come See About Me
TTITLE9=You Must Believe in Me
TTITLE10=Please Don't Let Me Know
TTITLE11=Just Because
EXTD=
EXTT0=
EXTT1=
EXTT2=
EXTT3=
EXTT4=
EXTT5=
EXTT6=
EXTT7=
EXTT8=
EXTT9=
EXTT10=
EXTT11=
PLAYORDER=
